<?xml version="1.0" encoding="UTF-8"?>
<!DOCTYPE svg PUBLIC "-//W3C//DTD SVG 1.1//EN" "http://www.w3.org/Graphics/SVG/1.1/DTD/svg11.dtd">
<!-- Creator: CorelDRAW 2019 (64-Bit) -->
<svg xmlns="http://www.w3.org/2000/svg" xml:space="preserve" width="868px" height="1080px" version="1.1" style="shape-rendering:geometricPrecision; text-rendering:geometricPrecision; image-rendering:optimizeQuality; fill-rule:evenodd; clip-rule:evenodd"
viewBox="0 0 868 1079.64"
 xmlns:xlink="http://www.w3.org/1999/xlink"
 xmlns:xodm="http://www.corel.com/coreldraw/odm/2003">
 <defs>
  <style type="text/css">
   <![CDATA[
    .fil2 {fill:#FEFEFE}
    .fil0 {fill:#332C2B}
    .fil6 {fill:#FFF000}
    .fil5 {fill:black}
    .fil4 {fill:#00A859}
    .fil8 {fill:#C92529}
    .fil7 {fill:#FEFEFE;fill-rule:nonzero}
    .fil3 {fill:#332C2B;fill-rule:nonzero}
    .fil1 {fill:url(#id0)}
   ]]>
  </style>
  <linearGradient id="id0" gradientUnits="userSpaceOnUse" x1="434" y1="22.78" x2="434" y2="1056.86">
   <stop offset="0" style="stop-opacity:1; stop-color:#FEFEFE"/>
   <stop offset="1" style="stop-opacity:1; stop-color:#EEEEEF"/>
  </linearGradient>
 </defs>
 <g id="Layer_x0020_1">
  <metadata id="CorelCorpID_0Corel-Layer"/>
  <g id="_2462918922144">
   <path class="fil0" d="M434 0c239.69,0 434,241.68 434,539.82 0,298.14 -194.31,539.82 -434,539.82 -239.69,0 -434,-241.68 -434,-539.82 0,-298.14 194.31,-539.82 434,-539.82z"/>
   <path class="fil1" d="M434 22.78c227.11,0 411.21,231.49 411.21,517.04 0,285.55 -184.1,517.04 -411.21,517.04 -227.11,0 -411.21,-231.49 -411.21,-517.04 0,-285.55 184.1,-517.04 411.21,-517.04z"/>
   <path class="fil2" d="M415.6 186.92c9.68,-0.97 14.8,-6.36 13.39,-16.81 -1.31,-9.67 4.13,-15.5 10.05,-23.67 11.62,-16.04 8.36,-29.68 -14.07,-35.27 -8.32,-2.08 -12.01,-7.67 -16.08,-13.62 -5.76,-8.43 -15.04,-6.62 -23.22,0.22l-9.69 41.53 11.83 33.27 27.79 14.35z"/>
   <path class="fil3" d="M417.03 190.33c-0.36,0.05 -0.72,0.09 -1.08,0.13l-1.05 0.1 -0.93 -0.48 -27.79 -14.34 -1.26 -0.65 -0.47 -1.34 -11.83 -33.27 -0.35 -0.98 0.23 -1.01 9.7 -41.53 0.27 -1.16 0.92 -0.77c0.94,-0.79 1.92,-1.53 2.9,-2.2 4.07,-2.78 8.35,-4.42 12.48,-4.48 4.45,-0.06 8.57,1.65 11.89,5.63 0.4,0.47 0.8,1 1.18,1.56l0.23 0.34c3.58,5.24 6.92,10.12 13.75,11.83 6.21,1.54 11.12,3.7 14.78,6.35 3.71,2.69 6.19,5.92 7.5,9.56 1.31,3.64 1.41,7.59 0.37,11.75 -1.05,4.21 -3.26,8.63 -6.55,13.17 -0.38,0.53 -1.23,1.67 -2.05,2.78 -4.59,6.17 -8.31,11.2 -7.35,18.32 0.04,0.31 0.08,0.66 0.12,1.07l0 0c0.58,5.75 -0.65,10.27 -3.42,13.61 -2.75,3.32 -6.89,5.3 -12.18,6.01l-0.01 0zm-0.77 -7.08c3.39,-0.49 5.93,-1.63 7.46,-3.48 1.55,-1.86 2.21,-4.63 1.84,-8.36l0 -0.01c-0.02,-0.21 -0.06,-0.48 -0.1,-0.81 -1.35,-9.99 3.15,-16.06 8.69,-23.51 0.5,-0.67 1.01,-1.37 2,-2.73 2.75,-3.8 4.58,-7.4 5.4,-10.68 0.7,-2.81 0.66,-5.38 -0.15,-7.65 -0.82,-2.26 -2.46,-4.34 -4.99,-6.18 -2.94,-2.13 -7.02,-3.9 -12.29,-5.21 -9.49,-2.37 -13.56,-8.33 -17.94,-14.73l-0.23 -0.34c-0.24,-0.36 -0.5,-0.69 -0.76,-1.01 -1.82,-2.17 -4.01,-3.11 -6.33,-3.08 -2.64,0.04 -5.59,1.23 -8.55,3.25 -0.48,0.33 -0.96,0.68 -1.44,1.05l-9.18 39.32 11.01 30.96 25.56 13.2z"/>
   <path class="fil4" d="M382.21 82.7c4.49,14.72 5.78,29.18 3.13,43.31 9.64,-2.16 21.18,3.4 31.27,4.59 -4.73,11.76 -5.56,28.31 -15.2,34.26 8.98,8.21 15.14,18.29 16.97,31.26 -17.86,-4.98 -37.51,-0.59 -56.26,-0.89 -7.11,-8.81 -14.22,-17.61 -21.32,-26.42 0.11,-10.25 0.22,-20.49 0.33,-30.74 5.65,-18.46 24.71,-25.08 41.08,-55.37z"/>
   <path class="fil5" d="M382.21 82.7c4.49,14.72 5.78,29.18 3.13,43.31 9.64,-2.16 21.18,3.4 31.27,4.59 -4.73,11.76 -5.56,28.31 -15.2,34.26 8.98,8.21 15.14,18.29 16.97,31.26 -17.86,-4.98 -37.51,-0.59 -56.26,-0.89l-21.32 -26.42 0.33 -30.74c5.65,-18.46 24.71,-25.08 41.08,-55.37zm0.64 22.15c-0.33,-4.25 -0.97,-8.53 -1.91,-12.82 -7.21,11.41 -14.62,19.04 -21.04,25.66 -6.9,7.11 -12.58,12.96 -15.17,20.96l-0.31 28.89 19.44 24.1c5.51,0 11.25,-0.38 16.99,-0.76 11.07,-0.73 22.15,-1.47 32.92,0.49 -1,-3.93 -2.47,-7.55 -4.35,-10.9 -2.68,-4.79 -6.18,-9.03 -10.32,-12.84 -0.29,-0.24 -0.55,-0.53 -0.76,-0.87 -1.04,-1.7 -0.52,-3.92 1.18,-4.97 5.44,-3.36 7.71,-11.86 9.97,-20.34 0.72,-2.7 1.44,-5.4 2.27,-8 -2.37,-0.49 -4.79,-1.11 -7.22,-1.74 -6.41,-1.66 -12.93,-3.34 -18.27,-2.21 -0.5,0.14 -1.05,0.16 -1.6,0.06 -1.96,-0.37 -3.25,-2.25 -2.88,-4.21 1.26,-6.74 1.59,-13.58 1.06,-20.5z"/>
   <path class="fil2" d="M354.4 221.15c11.33,-2.44 17.73,-8.63 12.91,-22.96 -2.79,-8.31 0.78,-14.36 5.14,-22.1 10.87,-19.32 4.37,-35.55 -17.18,-39.08 -10.02,-1.64 -16.44,-5.17 -20.11,-11.38 -8.44,-14.29 -18.91,-8.35 -28.01,2.03l-3.74 35.98 23.45 36.61 27.54 20.9z"/>
   <path class="fil3" d="M355.2 217.29c4.03,-1.05 7.11,-2.67 8.74,-5.13 1.81,-2.73 2.01,-6.84 -0.01,-12.84 -3.24,-9.63 0.47,-16.22 5.13,-24.48l0.28 -0.5c2.35,-4.17 3.81,-8.15 4.41,-11.8 0.67,-4.08 0.26,-7.77 -1.18,-10.89 -1.42,-3.08 -3.9,-5.7 -7.39,-7.66 -2.85,-1.6 -6.35,-2.78 -10.48,-3.46 -5.44,-0.89 -9.93,-2.32 -13.61,-4.38 -3.88,-2.19 -6.84,-5.05 -9,-8.71 -3.28,-5.56 -6.68,-7.24 -9.98,-6.56 -3.69,0.77 -7.67,4.03 -11.53,8.28l-3.49 33.6 22.44 35.06 25.67 19.47zm14.69 -1.19c-3,4.51 -8.2,7.13 -14.75,8.54l-1.58 0.34 -1.31 -1 -27.54 -20.89 -0.53 -0.4 -0.32 -0.51 -23.45 -36.62 -0.67 -1.05 0.13 -1.24 3.74 -35.98 0.12 -1.12 0.74 -0.86c5.01,-5.71 10.53,-10.23 16.22,-11.41 6.32,-1.3 12.38,1.19 17.54,9.91 1.51,2.55 3.6,4.56 6.35,6.11 2.95,1.66 6.67,2.83 11.26,3.58 5,0.81 9.29,2.27 12.83,4.27 4.84,2.72 8.32,6.44 10.38,10.89 2.04,4.43 2.63,9.52 1.73,15.02 -0.73,4.49 -2.46,9.26 -5.22,14.15l-0.28 0.49c-3.8,6.75 -6.82,12.12 -4.59,18.74 2.8,8.33 2.22,14.48 -0.8,19.04z"/>
   <path class="fil4" d="M297.79 108.37c-2.23,29.92 -30.13,42.65 -26.77,61.63 8.92,9.45 17.84,18.9 26.77,28.36 5.88,10.86 11.77,21.73 17.66,32.6 13.05,2.23 27.66,-5.81 39.82,0 1.33,-13.79 -7.81,-24.77 -21.96,-34.39 8.34,-7.14 5.96,-25.01 8.93,-37.51 -11.01,0 -23.81,-4.24 -33.04,0 2.27,-20.84 -1.77,-37.58 -11.41,-50.69z"/>
   <path class="fil5" d="M299.74 118.44c-3.05,11.42 -9.45,20.11 -15.2,27.91 -5.79,7.87 -10.85,14.74 -10.1,22.02l25.98 27.51c0.22,0.24 0.4,0.49 0.55,0.76l16.78 30.98c4.56,0.44 9.49,-0.34 14.4,-1.11 6.59,-1.03 13.14,-2.06 19.5,-0.61 -0.45,-4.15 -2.04,-8.02 -4.54,-11.66 -3.61,-5.28 -9.11,-10.12 -15.82,-14.68 -1.65,-1.12 -2.08,-3.36 -0.96,-5.01 0.18,-0.27 0.4,-0.52 0.64,-0.72 4.41,-3.79 5.15,-12.59 5.88,-21.37 0.28,-3.37 0.56,-6.74 1.05,-9.96 -2.47,-0.18 -4.98,-0.49 -7.49,-0.79 -7.25,-0.88 -14.5,-1.77 -19.71,0.63 -1.82,0.83 -3.96,0.03 -4.78,-1.78 -0.28,-0.61 -0.38,-1.26 -0.31,-1.88 1.09,-10.02 0.67,-19.02 -1.17,-27.06 -1.08,-4.71 -2.66,-9.1 -4.7,-13.18zm-1.95 -10.07c-2.23,29.92 -30.13,42.65 -26.77,61.63l26.77 28.36 17.66 32.6c13.05,2.23 27.66,-5.81 39.82,0 1.33,-13.79 -7.81,-24.77 -21.96,-34.39 8.34,-7.15 5.96,-25.01 8.93,-37.51 -11.01,0 -23.81,-4.24 -33.04,0 2.27,-20.84 -1.77,-37.58 -11.41,-50.69z"/>
   <path class="fil2" d="M310.36 247.09c11.06,-5.79 15.04,-13.29 5.21,-24.39 -4.07,-4.6 -0.85,-12.76 0.45,-23.89 3.19,-27.29 -13.39,-35.14 -33.72,-32.38 -7.81,1.06 -12.31,-1.43 -18.08,-5.14 -12.15,-7.79 -20.96,-1.77 -24.44,12.21l5.13 35.02 24.79 27.01 40.66 11.56z"/>
   <path class="fil3" d="M309.95 243.26c4,-2.26 6.66,-4.68 7.43,-7.35 0.8,-2.79 -0.46,-6.33 -4.47,-10.85 -4.13,-4.66 -3.08,-10.66 -1.69,-18.57 0.44,-2.52 0.92,-5.26 1.25,-8.09 0.49,-4.19 0.49,-7.85 0.06,-11.03 -0.77,-5.7 -2.93,-9.83 -6.06,-12.64 -3.17,-2.83 -7.43,-4.43 -12.36,-5 -3.52,-0.41 -7.34,-0.31 -11.33,0.23 -4.51,0.61 -8.1,0.19 -11.41,-0.93 -3.22,-1.09 -5.99,-2.75 -9.08,-4.73 -2.01,-1.29 -3.87,-2.13 -5.57,-2.56 -2.16,-0.53 -4.07,-0.4 -5.7,0.33 -1.7,0.76 -3.22,2.21 -4.52,4.23 -1.27,1.97 -2.3,4.46 -3.09,7.39l4.87 33.23 23.36 25.46 38.31 10.88zm14.27 -5.4c-1.45,5.04 -5.84,9.05 -12.21,12.38l-1.26 0.67 -1.35 -0.39 -40.67 -11.55 -0.98 -0.28 -0.68 -0.74 -24.78 -27.02 -0.75 -0.82 -0.16 -1.08 -5.13 -35.01 -0.1 -0.68 0.17 -0.69c0.99,-3.99 2.4,-7.43 4.18,-10.2 2.04,-3.18 4.6,-5.53 7.62,-6.88 3.09,-1.38 6.55,-1.68 10.3,-0.75 2.46,0.61 5.05,1.76 7.72,3.47 2.69,1.73 5.06,3.17 7.49,3.98 2.32,0.79 4.89,1.08 8.2,0.63 4.58,-0.62 9,-0.74 13.09,-0.26 6.34,0.74 11.95,2.9 16.29,6.79 4.38,3.92 7.36,9.49 8.38,16.99 0.51,3.77 0.53,8.03 -0.03,12.79 -0.37,3.14 -0.86,5.94 -1.31,8.51 -1.05,6 -1.85,10.55 -0.01,12.62 5.81,6.57 7.47,12.34 5.98,17.52z"/>
   <path class="fil4" d="M227.7 156.83c-1.34,28.73 -17.19,50.31 -16.08,74.13 10.13,11.61 20.25,23.22 30.37,34.83 7.89,3.87 15.78,7.74 23.67,11.61 13.77,-1.27 32.13,-19.5 51.35,-23.22 -8.2,-10.63 -20.84,-17.72 -32.39,-21.2 6.07,-9 2.64,-27.87 3.61,-41.11 -11.99,5.13 -29.91,2.14 -38.32,11.07 -1.97,-13.93 -7.74,-29.8 -22.21,-46.11z"/>
   <path class="fil5" d="M230.45 165.89c-1.57,10.88 -4.86,20.7 -8,30.14 -3.85,11.51 -7.49,22.43 -7.26,33.52l29.05 33.33 22.04 10.81c5.71,-0.89 12.81,-5.12 20.47,-9.67l0.24 -0.13c7.38,-4.39 15.24,-9.05 23.47,-11.73 -2.8,-2.85 -5.97,-5.37 -9.32,-7.56 -5.62,-3.68 -11.73,-6.4 -17.55,-8.15 -1.91,-0.57 -3,-2.59 -2.43,-4.5 0.11,-0.38 0.28,-0.72 0.49,-1.03 3.49,-5.23 3.2,-15.41 2.93,-25.25 -0.08,-2.98 -0.16,-5.93 -0.15,-8.74 -3.89,1.01 -8.03,1.55 -12.14,2.08 -7.85,1.01 -15.62,2.02 -19.75,6.41 -1.37,1.45 -3.65,1.52 -5.11,0.15 -0.62,-0.59 -0.99,-1.34 -1.1,-2.13 -0.94,-6.66 -2.79,-13.77 -6.13,-21.18 -2.41,-5.33 -5.58,-10.81 -9.75,-16.37zm-18.83 65.07l30.37 34.83 23.67 11.61c13.77,-1.27 32.13,-19.5 51.35,-23.22 -8.2,-10.63 -20.84,-17.72 -32.39,-21.2 6.07,-9 2.64,-27.87 3.61,-41.11 -11.99,5.13 -29.91,2.14 -38.32,11.07 -1.97,-13.93 -7.74,-29.8 -22.21,-46.11 -1.34,28.72 -17.19,50.31 -16.08,74.13z"/>
   <path class="fil2" d="M268.02 301.3c7.53,-7.74 9.08,-13.4 2.22,-20.1 -6.17,-6.04 -5.94,-15.26 -5.35,-26.8 1.22,-24.18 -10.3,-39.47 -40.19,-28.58 -6.17,2.25 -11.23,-0.07 -21.89,-3.12 -10.52,-3.02 -16.91,6.34 -18.33,17.43l11.31 32.47 23.22 9.37 11.83 12.06 37.18 7.27z"/>
   <path class="fil3" d="M266.78 297.42c2.45,-2.72 3.92,-5.03 4.22,-7.08 0.29,-2.01 -0.71,-4.12 -3.24,-6.59 -3.73,-3.65 -5.51,-8.14 -6.26,-13.39 -0.68,-4.79 -0.47,-10.17 -0.17,-16.12 0.32,-6.41 -0.3,-12.1 -1.96,-16.68 -1.28,-3.51 -3.19,-6.35 -5.77,-8.33 -2.59,-1.99 -5.93,-3.18 -10.08,-3.38 -4.8,-0.25 -10.63,0.78 -17.61,3.32 -6.28,2.29 -11.09,0.85 -19.34,-1.64 -1.39,-0.42 -2.89,-0.87 -4.73,-1.4 -0.64,-0.18 -1.21,-0.3 -1.71,-0.37 -2.66,-0.34 -4.9,0.53 -6.67,2.18 -2.03,1.88 -3.56,4.77 -4.52,8.14 -0.35,1.21 -0.62,2.45 -0.81,3.69l10.49 30.13 21.72 8.77 0.69 0.28 0.52 0.53 11.06 11.26 34.17 6.68zm11.28 -6.05c-0.59,4.05 -3.2,8.01 -7.49,12.42l-1.35 1.38 -1.89 -0.36 -37.17 -7.28 -1.07 -0.21 -0.79 -0.79 -11.31 -11.53 -22.53 -9.1 -1.5 -0.61 -0.53 -1.52 -11.31 -32.46 -0.28 -0.79 0.11 -0.83c0.25,-1.96 0.62,-3.83 1.12,-5.56 1.31,-4.57 3.5,-8.6 6.53,-11.41 3.28,-3.05 7.44,-4.66 12.42,-4.02 0.95,0.12 1.87,0.31 2.77,0.56 1.61,0.47 3.28,0.97 4.81,1.43 6.85,2.06 10.83,3.26 14.88,1.78 7.9,-2.87 14.66,-4.03 20.37,-3.74 5.7,0.28 10.37,1.98 14.08,4.83 3.71,2.85 6.39,6.79 8.14,11.58 2,5.49 2.74,12.11 2.37,19.43 -0.28,5.58 -0.47,10.58 0.12,14.79 0.54,3.76 1.73,6.9 4.17,9.28 4.33,4.23 5.98,8.31 5.33,12.73z"/>
   <path class="fil4" d="M169.87 226.27c6.1,25.23 -5.66,49.79 -0.44,71 9.21,7.36 18.43,14.72 27.64,22.09 11.77,5.44 23.55,10.88 35.32,16.32 16.3,-5.29 29.47,-24.86 46.89,-27.25 -11.61,-8.96 -25.16,-13.65 -39.75,-16.07 2.09,-12.21 -3.86,-27.32 -3.12,-41.98 -11.76,6.92 -28.21,6.7 -37.96,16.08 -3.74,-15.65 -14.12,-28.71 -28.58,-40.19z"/>
   <path class="fil5" d="M174.99 235.45c0.89,10.21 -0.39,20.14 -1.62,29.74 -1.36,10.62 -2.67,20.82 -0.71,30.04l26.32 21.03 33.6 15.52c6.22,-2.36 12.26,-7.11 18.32,-11.87 6.37,-5 12.77,-10.03 19.93,-12.9 -3.71,-2.26 -7.58,-4.14 -11.61,-5.7 -6.41,-2.5 -13.21,-4.22 -20.26,-5.39 -1.97,-0.32 -3.31,-2.17 -2.99,-4.14l0.01 -0.03c1,-5.94 -0.12,-12.98 -1.3,-20.33 -0.8,-4.97 -1.61,-10.08 -1.87,-15.26 -3.89,1.62 -7.98,2.78 -12.05,3.93 -7.44,2.11 -14.85,4.2 -19.8,8.97 -1.44,1.38 -3.73,1.34 -5.11,-0.1 -0.51,-0.53 -0.82,-1.17 -0.95,-1.84 -1.76,-7.26 -5.07,-13.95 -9.63,-20.18 -2.93,-4.01 -6.38,-7.83 -10.28,-11.49zm61.42 14.93c-11.76,6.92 -28.21,6.7 -37.96,16.08 -3.74,-15.65 -14.12,-28.71 -28.58,-40.19 6.1,25.23 -5.66,49.79 -0.45,71l27.65 22.09 35.32 16.32c16.3,-5.29 29.47,-24.86 46.89,-27.25 -11.61,-8.96 -25.16,-13.65 -39.75,-16.07 2.09,-12.21 -3.86,-27.32 -3.12,-41.98z"/>
   <path class="fil2" d="M234.82 352.18c5.9,-7.91 6.8,-14.11 -4.43,-21.53 -7.52,-4.96 -5.72,-15.06 -8.49,-25 -6.53,-23.51 -28.8,-25.68 -45.54,-14.29 -5.95,4.04 -14.28,-2.79 -21.44,-2.24 -11.55,0.9 -18.78,7.52 -15.85,21.03l16.98 28.98 25.88 10.84 27.26 13.95 25.63 -11.74z"/>
   <path class="fil3" d="M232.47 349.34c2.11,-2.94 3.3,-5.47 3.03,-7.66 -0.31,-2.41 -2.42,-4.98 -7.08,-8.05 -6.5,-4.3 -7.38,-10.89 -8.36,-18.27 -0.39,-2.87 -0.79,-5.87 -1.59,-8.77 -0.99,-3.58 -2.38,-6.59 -4.06,-9.06 -2.93,-4.32 -6.83,-7.04 -11.17,-8.34 -4.45,-1.34 -9.4,-1.23 -14.3,0.14 -3.63,1 -7.23,2.69 -10.59,4.97 -4.94,3.36 -10.1,1.7 -15.37,-0.01 -2.75,-0.88 -5.54,-1.78 -7.79,-1.61 -1.19,0.09 -2.33,0.26 -3.4,0.49 -3.3,0.71 -5.93,2.08 -7.59,4.15 -1.64,2.04 -2.45,4.92 -2.15,8.71 0.07,0.89 0.2,1.84 0.4,2.85l16.06 27.42 24.79 10.37 0.25 0.13 25.72 13.16 23.2 -10.62zm10.09 -8.56c0.58,4.57 -1.41,8.88 -4.88,13.54l-0.53 0.71 -0.85 0.39 -25.63 11.74 -1.57 0.71 -1.53 -0.78 -27.04 -13.84 -25.85 -10.82 -1.1 -0.46 -0.6 -1.04 -16.98 -28.98 -0.31 -0.52 -0.11 -0.53c-0.33,-1.51 -0.54,-2.96 -0.65,-4.34 -0.44,-5.71 0.94,-10.25 3.71,-13.7 2.75,-3.42 6.77,-5.62 11.64,-6.67 1.38,-0.3 2.85,-0.51 4.37,-0.63 3.61,-0.28 7.09,0.85 10.51,1.95 3.6,1.17 7.13,2.31 9.2,0.9 4.01,-2.73 8.32,-4.74 12.68,-5.95 6.18,-1.72 12.49,-1.84 18.24,-0.11 5.85,1.76 11.09,5.41 15.02,11.19 2.11,3.1 3.83,6.81 5.04,11.16 0.93,3.35 1.36,6.62 1.78,9.74 0.75,5.67 1.43,10.73 5.24,13.24 6.57,4.34 9.62,8.58 10.2,13.1z"/>
   <path class="fil4" d="M120.75 303.52c14.33,22.78 5.37,49.3 12.06,66.99 11.76,6.1 23.52,12.2 35.27,18.31 10.42,2.53 20.84,5.06 31.26,7.59 15.44,-5.2 22.85,-25.65 43.77,-39.75 -11.76,-8.04 -26.03,-9.69 -40.76,-7.02 4.32,-13.84 -5.09,-27.58 -9.26,-40.53 -9.52,7.44 -28.55,13.54 -31.82,22.99 -8.31,-14.47 -20.9,-24.22 -40.52,-28.58z"/>
   <path class="fil5" d="M127.78 309.2c5.2,12.16 5.42,24.73 5.62,36.35 0.15,8.29 0.28,16.06 2.34,22.41l33.63 17.46 29.77 7.22c6.71,-2.64 12.1,-9 18.28,-16.28 5.33,-6.28 11.2,-13.21 19.13,-19.4 -3.96,-2.03 -8.18,-3.38 -12.56,-4.14 -6.69,-1.15 -13.78,-0.94 -21,0.37 -1.96,0.35 -3.84,-0.96 -4.19,-2.92 -0.11,-0.58 -0.06,-1.17 0.11,-1.7 2.78,-8.96 -1.23,-18.49 -5.12,-27.71 -0.86,-2.05 -1.72,-4.08 -2.51,-6.11 -2.78,1.76 -5.88,3.43 -9.01,5.13 -7.85,4.25 -15.94,8.62 -17.59,13.4 -0.65,1.88 -2.71,2.88 -4.59,2.23 -0.86,-0.29 -1.53,-0.88 -1.95,-1.62 -3.92,-6.8 -8.81,-12.48 -15,-16.94 -4.39,-3.18 -9.48,-5.77 -15.36,-7.75zm-7.03 -5.68c14.33,22.78 5.37,49.3 12.06,66.99l35.27 18.31 31.27 7.59c15.43,-5.2 22.84,-25.65 43.76,-39.75 -11.76,-8.04 -26.02,-9.69 -40.76,-7.02 4.32,-13.84 -5.09,-27.58 -9.26,-40.53 -9.52,7.44 -28.55,13.54 -31.82,22.99 -8.31,-14.47 -20.9,-24.22 -40.52,-28.58z"/>
   <path class="fil2" d="M201.8 412.87c8.64,-9.57 7.17,-16.24 -5.91,-21.82 -7.85,-3.35 -12.13,-9.46 -13.17,-16.52 -4.05,-27.43 -29.77,-29.72 -46.89,-10.72 -3.47,3.85 -11.18,2.15 -20.76,2.01 -11.54,-0.16 -14.19,9.48 -14.33,19.7l20.7 32.88 30.59 0.22 22.1 5.14 27.67 -10.89z"/>
   <path class="fil3" d="M199.71 409.86c3.08,-3.55 4.39,-6.34 3.84,-8.5 -0.63,-2.41 -3.6,-4.7 -9.05,-7.03 -4.38,-1.87 -7.82,-4.51 -10.34,-7.67 -2.71,-3.4 -4.35,-7.37 -4.97,-11.62 -1.07,-7.26 -3.77,-12.47 -7.4,-15.75 -1.98,-1.78 -4.25,-3 -6.68,-3.67 -2.47,-0.69 -5.16,-0.82 -7.93,-0.41 -6.32,0.93 -12.99,4.65 -18.7,10.99 -3.78,4.2 -9.62,3.87 -17.08,3.45 -2.07,-0.12 -4.29,-0.24 -6.38,-0.27 -4.25,-0.06 -6.81,1.6 -8.3,4.18 -1.64,2.82 -2.26,6.78 -2.4,10.97l19.1 30.32 28.62 0.21 0.44 0.01 0.34 0.08 21.04 4.88 25.85 -10.17zm10.73 -10.29c1.25,4.84 -0.83,9.96 -6,15.69l-0.57 0.63 -0.77 0.3 -27.67 10.89 -1.02 0.4 -1.07 -0.25 -21.77 -5.05 -30.15 -0.22 -1.96 -0.02 -1.04 -1.64 -20.69 -32.88 -0.56 -0.89 0.01 -1.05c0.08,-5.65 0.89,-11.21 3.37,-15.49 2.75,-4.76 7.27,-7.83 14.56,-7.73 2.5,0.04 4.66,0.16 6.68,0.27 5.55,0.31 9.89,0.56 11.39,-1.11 6.86,-7.61 15.07,-12.11 22.96,-13.27 3.73,-0.55 7.41,-0.35 10.87,0.6 3.5,0.97 6.74,2.71 9.55,5.24 4.83,4.35 8.36,10.99 9.69,20.02 0.44,3.02 1.6,5.83 3.49,8.21 1.81,2.26 4.31,4.17 7.55,5.55 7.62,3.25 11.93,7.09 13.15,11.8z"/>
   <path class="fil4" d="M83.35 379.55c9.44,15.66 15.62,31.55 16.97,47.78 0.94,11.23 5.21,18.87 11.17,24.12 12.19,5.02 24.38,10.05 36.57,15.07 11.48,-0.71 22.95,-1.41 34.43,-2.12 8.1,-19.51 17.01,-38.15 33.49,-48.68 -14.64,-3.76 -28.68,-5.16 -41.53,-1.78 -1.19,-11.84 -13.99,-20.89 -19.65,-33.17 -8.34,10.72 -23.59,14.64 -27.69,25.13 -12.22,-13.8 -26.77,-22.67 -43.76,-26.35z"/>
   <path class="fil5" d="M90.8 385.35c2.92,5.5 5.43,11.05 7.46,16.65 3.01,8.26 4.96,16.61 5.67,25.04 0.43,5.15 1.61,9.45 3.34,13.02 1.62,3.32 3.72,6.04 6.16,8.29l35.23 14.52 31.36 -1.94c3.85,-9.16 7.95,-18.11 13.02,-26.16 4.1,-6.51 8.82,-12.39 14.52,-17.27 -4.48,-0.89 -8.9,-1.5 -13.21,-1.74 -6.59,-0.38 -12.94,0.09 -18.98,1.67 -1.93,0.51 -3.91,-0.64 -4.41,-2.57 -0.06,-0.23 -0.1,-0.46 -0.12,-0.68 -0.63,-5.85 -5,-11.41 -9.56,-17.21 -2.51,-3.19 -5.07,-6.45 -7.24,-10 -3.4,3.24 -7.26,5.83 -11,8.33 -5.52,3.7 -10.71,7.18 -12.56,11.91 -0.73,1.86 -2.82,2.78 -4.68,2.05 -0.63,-0.24 -1.14,-0.64 -1.53,-1.13 -5.82,-6.54 -12.19,-11.92 -19.12,-16.1 -4.54,-2.74 -9.32,-4.97 -14.35,-6.68zm-7.45 -5.8c9.44,15.66 15.62,31.55 16.97,47.78 0.94,11.23 5.21,18.87 11.16,24.12l36.58 15.07 34.43 -2.12c8.1,-19.51 17.01,-38.15 33.49,-48.68 -14.64,-3.77 -28.68,-5.16 -41.53,-1.78 -1.19,-11.84 -13.99,-20.89 -19.65,-33.17 -8.34,10.72 -23.59,14.64 -27.69,25.13 -12.22,-13.8 -26.77,-22.67 -43.76,-26.35z"/>
   <path class="fil2" d="M197.49 485.64c6.03,-17.02 -0.58,-21.94 -13.14,-25.66 -11.86,-3.52 -14.55,-15.49 -20.83,-23.6 -13.33,-17.22 -28.19,-15.97 -42.43,3.12 -5.57,7.48 -12.72,7.9 -22.32,7.15 -16.52,-1.31 -19.06,12.12 -17.72,26.51l25.65 27.4 34.83 4.02 27.24 -1.34 28.72 -17.6z"/>
   <path class="fil3" d="M194.53 483.27c2.19,-6.64 2.12,-10.8 0.36,-13.52 -1.89,-2.92 -6.03,-4.72 -11.55,-6.36 -9.77,-2.89 -13.93,-10.24 -18.01,-17.45 -1.48,-2.62 -2.95,-5.21 -4.63,-7.39 -2.29,-2.95 -4.62,-5.31 -6.97,-7.06l0 -0.01c-3.41,-2.54 -6.85,-3.75 -10.25,-3.64 -3.45,0.11 -7.02,1.59 -10.68,4.42 -2.93,2.27 -5.89,5.4 -8.85,9.36l0 0.02c-3.32,4.45 -7.16,6.82 -11.63,7.97 -4.19,1.07 -8.71,1 -13.83,0.59 -6.53,-0.51 -10.22,1.72 -12.1,5.42 -2.05,4.05 -2.38,9.85 -1.9,16.01l23.9 25.54 33.29 3.84 26.01 -1.28 26.84 -16.46zm6.36 -17.37c3.08,4.77 3.39,11.24 -0.04,20.93l-0.42 1.19 -1.09 0.66 -28.71 17.61 -0.77 0.47 -0.92 0.04 -27.24 1.34 -0.32 0.02 -0.25 -0.03 -34.83 -4.02 -1.29 -0.15 -0.9 -0.97 -25.66 -27.4 -0.84 -0.9 -0.11 -1.21c-0.72,-7.78 -0.35,-15.39 2.53,-21.07 3.19,-6.28 9.03,-10.11 19.02,-9.32 4.47,0.35 8.33,0.44 11.51,-0.38 2.9,-0.74 5.42,-2.32 7.67,-5.34l0.01 0c3.35,-4.49 6.76,-8.08 10.21,-10.75 4.86,-3.76 9.82,-5.73 14.81,-5.9 5.05,-0.17 9.98,1.51 14.73,5.05l0.01 0c2.84,2.11 5.62,4.92 8.34,8.43 1.99,2.57 3.58,5.38 5.19,8.22 3.38,5.97 6.82,12.06 13.82,14.14 7.05,2.09 12.49,4.62 15.54,9.34z"/>
   <path class="fil4" d="M64.37 471.55c9.63,9.96 19.2,22.16 23.34,39.29 2.86,11.85 8.15,21.92 16.85,30.82 12.95,2.38 25.9,4.76 38.85,7.14 11.02,0.45 22.03,0.89 33.05,1.34 12.71,-18.44 14.61,-45.47 32.6,-63.41 -14.57,-2.31 -28.9,-1.26 -42.87,5.36 -2.98,-13.77 -18.46,-22.75 -25.01,-34.95 -7.37,11.16 -21.76,21.55 -27.12,31.82 -13.74,-12.02 -31.18,-17.3 -49.69,-17.41z"/>
   <path class="fil5" d="M72.96 475.61c2.87,3.36 5.64,6.98 8.18,10.96 4.31,6.74 7.91,14.44 10.08,23.42 1.36,5.62 3.29,10.81 5.91,15.65 2.44,4.51 5.48,8.71 9.23,12.68l37.45 6.89 30.76 1.24c4.48,-7.03 7.59,-15.4 10.76,-23.93 4.23,-11.38 8.57,-23.06 16.45,-33.04 -4.69,-0.38 -9.36,-0.35 -13.98,0.17 -6.77,0.76 -13.46,2.57 -20.07,5.7 -1.8,0.85 -3.96,0.08 -4.81,-1.72 -0.12,-0.25 -0.21,-0.52 -0.26,-0.78 -1.54,-7.11 -7.25,-13.17 -12.94,-19.2 -3.09,-3.29 -6.19,-6.58 -8.77,-10.13 -3.14,3.9 -6.83,7.64 -10.46,11.32 -5.37,5.47 -10.63,10.8 -13.23,15.79 -0.92,1.76 -3.1,2.45 -4.87,1.53 -0.26,-0.14 -0.49,-0.3 -0.7,-0.48 -6.3,-5.51 -13.44,-9.53 -21.11,-12.22 -5.62,-1.97 -11.53,-3.23 -17.62,-3.85zm68.22 -18.47c-7.37,11.16 -21.76,21.55 -27.12,31.82 -13.74,-12.02 -31.18,-17.3 -49.69,-17.41 9.63,9.96 19.2,22.16 23.34,39.29 2.87,11.85 8.15,21.92 16.85,30.82l38.85 7.14 33.05 1.34c12.71,-18.44 14.61,-45.47 32.6,-63.41 -14.57,-2.31 -28.9,-1.26 -42.87,5.36 -2.98,-13.77 -18.46,-22.75 -25.01,-34.95z"/>
   <path class="fil2" d="M190.47 567.26c2.8,-6.42 6.64,-16.37 -3.95,-19.7 -9.86,-3.1 -19.16,-5.76 -24.68,-14.62 -12.2,-19.58 -32.51,-26.02 -49.36,-4.46 -7.12,9.11 -14.99,10.28 -23.1,10.39 -20.99,0.27 -19.28,18.05 -13.72,28.51l34.61 25.62 29.25 -0.44 28.58 -5.36 22.37 -19.94z"/>
   <path class="fil3" d="M187.52 565.11c1.18,-2.77 2.45,-6.09 2.44,-8.86 -0.01,-2.21 -1.09,-4.21 -4.5,-5.28l-0.98 -0.31c-10.14,-3.18 -19.63,-6.15 -25.66,-15.83 -2.83,-4.53 -6.08,-8.28 -9.6,-11.03 -3.77,-2.94 -7.84,-4.75 -11.99,-5.14 -4.08,-0.39 -8.33,0.6 -12.56,3.23 -3.17,1.98 -6.33,4.87 -9.38,8.78 -4.02,5.14 -8.3,8.06 -12.75,9.72 -4.35,1.62 -8.72,1.98 -13.12,2.04 -3.8,0.05 -6.67,0.72 -8.77,1.84l0 0.01c-1.88,1 -3.14,2.38 -3.92,3.96 -0.84,1.7 -1.18,3.7 -1.15,5.79 0.05,3.72 1.24,7.69 2.88,10.99l32.97 24.41 27.71 -0.43 27.32 -5.12 21.06 -18.77zm9.56 -8.86c0.01,4.4 -1.81,8.91 -3.34,12.43l-0.32 0.73 -0.57 0.52 -22.37 19.93 -0.74 0.66 -0.98 0.18 -28.58 5.36 -0.27 0.05 -0.35 0.01 -29.24 0.44 -1.2 0.02 -0.97 -0.72 -34.61 -25.62 -0.67 -0.49 -0.37 -0.7c-2.27,-4.28 -3.97,-9.71 -4.04,-14.94 -0.04,-3.16 0.52,-6.26 1.88,-9.02 1.42,-2.89 3.67,-5.36 6.96,-7.11l0.01 0.01c3.06,-1.63 7.01,-2.62 12.03,-2.68 3.7,-0.05 7.33,-0.33 10.72,-1.59 3.29,-1.23 6.51,-3.46 9.62,-7.43 3.6,-4.62 7.38,-8.06 11.23,-10.46 5.61,-3.49 11.37,-4.79 16.99,-4.26 5.55,0.53 10.88,2.85 15.7,6.62 4.2,3.29 8.03,7.66 11.27,12.87 4.63,7.43 12.9,10.02 21.73,12.79l0.98 0.31c7.19,2.25 9.48,6.89 9.5,12.09z"/>
   <path class="fil4" d="M103.56 634.88c-10.55,-10.64 -16.06,-24.45 -21.88,-38.41 -5.17,-12.37 -14.59,-21.78 -26.35,-29.09 19.52,-6.09 37.79,-1.89 54.93,11.68 1.65,-11.55 10.54,-22.25 22.32,-32.6 13.26,9.8 24.73,19.81 27.24,30.81 12.53,-7.98 26.48,-11.44 41.98,-9.89 -12.68,20.27 -16.64,39.09 -21.88,58.12 -11.3,3.82 -22.6,7.64 -33.9,11.45 -14.15,-0.69 -28.31,-1.38 -42.46,-2.07z"/>
   <path class="fil5" d="M146.02 636.95l-42.46 -2.07c-10.55,-10.64 -16.06,-24.45 -21.88,-38.41 -5.17,-12.36 -14.59,-21.78 -26.35,-29.09 19.52,-6.09 37.79,-1.89 54.93,11.68 1.65,-11.55 10.54,-22.25 22.33,-32.6 13.25,9.8 24.72,19.81 27.23,30.81 12.53,-7.99 26.48,-11.44 41.98,-9.89 -12.68,20.27 -16.64,39.09 -21.88,58.12l-33.9 11.45zm-60.33 -40.24c5.27,12.63 10.44,25.05 19.47,34.63l40.36 1.97 31.43 -10.61 1.43 -5.39c4.07,-15.23 8.14,-30.47 17.28,-46.67 -5.23,-0.08 -10.27,0.47 -15.13,1.63 -6.54,1.56 -12.73,4.22 -18.57,7.92 -0.39,0.28 -0.83,0.49 -1.33,0.6 -1.94,0.45 -3.88,-0.77 -4.33,-2.71 -1.09,-4.8 -4.27,-9.52 -8.68,-14.17 -4.1,-4.33 -9.25,-8.58 -14.82,-12.79 -4.82,4.39 -9.02,8.82 -12.25,13.3 -3.57,4.95 -5.98,9.99 -6.72,15.15 -0.09,0.61 -0.34,1.2 -0.75,1.72 -1.23,1.56 -3.5,1.83 -5.06,0.59 -8.12,-6.42 -16.48,-10.63 -25.1,-12.5 -6.13,-1.33 -12.41,-1.47 -18.86,-0.39 3.47,2.62 6.67,5.47 9.56,8.58 4.76,5.12 8.64,10.92 11.39,17.52l0.68 1.62z"/>
   <path class="fil2" d="M206.7 646.32c1.91,-11.39 -0.45,-20.62 -13.04,-21.94 -12.97,-1.37 -22.03,-5.06 -26.91,-11.61 -17.89,-24.03 -48.54,-16.76 -56.71,9.38 -2.76,8.82 -11.98,9.51 -18.64,13.84 -13.72,8.9 -10.12,20.27 -2.7,30.41l29.39 16.14 19.42 -0.22 45.55 -10.5 23.64 -25.5z"/>
   <path class="fil3" d="M203.35 644.7c0.66,-4.59 0.52,-8.62 -0.93,-11.55 -1.38,-2.8 -4.22,-4.71 -9.12,-5.23 -6.84,-0.72 -12.7,-2.07 -17.53,-4.12 -5.07,-2.16 -9.05,-5.11 -11.88,-8.91 -4.68,-6.29 -10.29,-10.2 -16.04,-12 -4.04,-1.27 -8.18,-1.5 -12.14,-0.79 -3.98,0.71 -7.79,2.36 -11.13,4.86 -4.93,3.67 -8.93,9.18 -11.14,16.25 -2.41,7.7 -8.22,10.23 -14.14,12.79 -2.08,0.9 -4.17,1.82 -5.96,2.97 -5.65,3.67 -7.74,7.67 -7.66,11.69 0.09,4.16 2.34,8.65 5.44,13l27.88 15.31 18.06 -0.21 44.14 -10.17 22.15 -23.89zm5.46 -14.7c2.3,4.64 2.48,10.52 1.41,16.91l-0.17 1.05 -0.74 0.79 -23.64 25.5 -0.74 0.8 -1.07 0.25 -45.55 10.49 -0.34 0.08 -0.43 0 -19.42 0.23 -0.94 0.01 -0.81 -0.44 -29.39 -16.14 -0.69 -0.38 -0.47 -0.64c-4.09,-5.59 -7.12,-11.63 -7.26,-17.71 -0.13,-6.42 2.84,-12.57 10.9,-17.8 2.24,-1.45 4.64,-2.5 7.03,-3.53 4.38,-1.91 8.7,-3.78 10.14,-8.39 2.68,-8.56 7.6,-15.3 13.7,-19.85 4.26,-3.17 9.09,-5.26 14.12,-6.16 5.06,-0.91 10.35,-0.61 15.52,1.01 7.12,2.23 13.99,6.98 19.64,14.57 2.04,2.74 5.04,4.92 8.96,6.59 4.16,1.77 9.33,2.95 15.46,3.59 7.68,0.81 12.32,4.18 14.78,9.17z"/>
   <path class="fil4" d="M116.4 722.29c-15.41,-17.78 -27.36,-41.46 -49.69,-50.91 16.24,-7.55 36.43,-6.59 58.62,3.13 -0.6,-13.77 11.53,-26.02 14.29,-41.98 11.81,9.21 29.27,14.83 37.06,28.58 12.95,-11.64 27.7,-16.67 44.21,-15.18 -11.31,16.97 -8.56,43.76 -15.18,61.62 -13.25,4.77 -26.5,9.53 -39.74,14.29 -16.53,0.15 -33.05,0.3 -49.57,0.45z"/>
   <path class="fil5" d="M125.33 674.51c-0.6,-13.77 11.53,-26.03 14.29,-41.98 11.81,9.21 29.27,14.83 37.06,28.58 12.95,-11.64 27.69,-16.67 44.21,-15.18 -11.31,16.97 -8.56,43.76 -15.18,61.62l-39.75 14.29 -49.56 0.45c-15.41,-17.78 -27.36,-41.47 -49.69,-50.91 16.24,-7.55 36.43,-6.59 58.62,3.13zm-18.13 30.18c3.6,4.83 7.18,9.64 10.85,13.98l47.27 -0.43 37.54 -13.49c2.19,-6.64 3.23,-14.56 4.28,-22.66 1.48,-11.33 3,-22.99 7.71,-32.81 -5.66,0.06 -11.08,0.97 -16.26,2.75 -6.9,2.37 -13.4,6.29 -19.49,11.77 -0.19,0.17 -0.41,0.32 -0.64,0.45 -1.73,0.98 -3.93,0.38 -4.92,-1.36 -4.72,-8.32 -13.79,-13.63 -22.63,-18.81 -3.07,-1.8 -6.12,-3.58 -9.01,-5.49 -1.65,5.51 -4.13,10.57 -6.52,15.45 -3.45,7.02 -6.71,13.67 -6.45,20.26 0.03,0.55 -0.06,1.11 -0.29,1.65 -0.8,1.83 -2.93,2.67 -4.76,1.87 -10.65,-4.67 -20.79,-7.24 -30.18,-7.74 -6.38,-0.34 -12.43,0.28 -18.06,1.85 13.05,7.95 22.36,20.44 31.56,32.76z"/>
   <path class="fil2" d="M229.73 725.4c2.09,-10.62 2.68,-20.18 -14.4,-20.87 -10,-0.4 -17.28,-5.22 -23.34,-12.38 -17.57,-20.73 -40.18,-18.81 -53.02,6.13 -5.13,9.96 -12.31,13.8 -19.21,16.52 -18.84,7.45 -16.18,19.49 -5.89,31.15l34.14 21.44 33.27 -3.13 26.34 -7.59 22.11 -31.27z"/>
   <path class="fil3" d="M226.38 723.97c0.83,-4.42 1.33,-8.53 0.09,-11.26 -1.18,-2.59 -4.37,-4.34 -11.28,-4.62 -5.61,-0.22 -10.46,-1.69 -14.75,-4.1 -4.23,-2.37 -7.88,-5.65 -11.17,-9.54 -3.91,-4.6 -8.04,-7.98 -12.22,-10.13 -4.37,-2.26 -8.8,-3.15 -13.06,-2.68 -4.24,0.47 -8.38,2.32 -12.18,5.54 -3.58,3.03 -6.86,7.27 -9.68,12.73 -2.82,5.5 -6.25,9.33 -9.92,12.17 -3.65,2.81 -7.45,4.59 -11.13,6.05 -3.6,1.42 -6.27,2.97 -8.14,4.62l0 0.01c-1.92,1.7 -2.99,3.49 -3.35,5.33 -0.38,1.9 -0.05,3.99 0.81,6.18 1.15,2.89 3.18,5.91 5.8,8.93l32.68 20.53 31.75 -2.98 24.8 -7.15 20.95 -29.63zm6.59 -14.19c2.14,4.71 1.43,10.4 0.27,16.3l-0.15 0.75 -0.44 0.62 -22.11 31.27 -0.72 1.01 -1.22 0.36 -26.35 7.59 -0.32 0.09 -0.33 0.03 -33.27 3.13 -1.2 0.11 -1.02 -0.64 -34.14 -21.44 -0.42 -0.26 -0.35 -0.39c-3.33,-3.78 -5.94,-7.63 -7.44,-11.42 -1.36,-3.43 -1.84,-6.85 -1.18,-10.16 0.67,-3.38 2.46,-6.52 5.65,-9.33l0 0.01c2.51,-2.21 5.88,-4.21 10.22,-5.93 3.21,-1.26 6.46,-2.77 9.4,-5.04 2.92,-2.25 5.65,-5.33 7.95,-9.79 3.25,-6.32 7.12,-11.29 11.4,-14.92 4.91,-4.16 10.36,-6.55 16.01,-7.18 5.65,-0.62 11.46,0.52 17.11,3.43 5,2.57 9.87,6.53 14.39,11.87 2.77,3.26 5.79,5.99 9.22,7.92 3.36,1.88 7.15,3.03 11.54,3.21 10.16,0.4 15.22,3.77 17.5,8.8z"/>
   <path class="fil4" d="M167.86 817.97c-19.52,-6.06 -29.62,-15.04 -35.72,-25.46 -9.87,-16.84 -22.6,-29.41 -37.52,-39.29 14.12,-11.15 32.1,-8.61 53.59,0.89 -0.67,-14.66 14.74,-26.87 18.76,-41.98 7.31,7.74 24.16,10.79 34.38,29.03 13.4,-5.66 23.89,-18.91 40.19,-16.97 -3.99,17.65 -7.67,35.21 -4.46,50.46 -10.42,11.91 -20.84,23.82 -31.26,35.73 -12.65,2.53 -25.31,5.06 -37.96,7.59z"/>
   <path class="fil5" d="M166.97 712.13c7.31,7.74 24.16,10.79 34.38,29.03 13.4,-5.66 23.9,-18.91 40.19,-16.97 -3.99,17.65 -7.67,35.21 -4.46,50.46l-31.26 35.73 -37.96 7.59c-19.52,-6.07 -29.62,-15.04 -35.72,-25.46 -9.87,-16.84 -22.6,-29.42 -37.52,-39.29 14.12,-11.15 32.1,-8.61 53.59,0.89 -0.67,-14.66 14.74,-26.87 18.76,-41.98zm-19.84 91.86c5.23,3.93 12.01,7.4 20.91,10.25l35.88 -7.18 29.28 -33.46c-1.33,-7.54 -1.16,-15.51 -0.18,-23.7 0.87,-7.25 2.38,-14.72 4.05,-22.24 -7.77,0.46 -14.38,4.81 -20.99,9.17 -4.2,2.77 -8.42,5.54 -13.07,7.54 -1.73,0.89 -3.86,0.26 -4.81,-1.44 -6.17,-11.01 -15.17,-16.17 -22.59,-20.43 -2.5,-1.44 -4.85,-2.79 -6.94,-4.25 -2.09,4.97 -5.04,9.56 -7.95,14.09 -4.63,7.22 -9.15,14.27 -8.91,21.43 0.06,0.6 -0.03,1.21 -0.29,1.8 -0.8,1.82 -2.94,2.65 -4.76,1.85 -10.38,-4.59 -19.83,-7.49 -28.28,-7.89 -6.35,-0.31 -12.17,0.82 -17.44,3.73 5.99,4.31 11.62,9.1 16.82,14.48 6.47,6.68 12.3,14.26 17.39,22.95 2.82,4.82 6.58,9.32 11.88,13.3z"/>
   <path class="fil2" d="M165.31 845.85c-14.41,-7.52 -18.36,-18.83 -2.3,-29.15 8.15,-5.24 9.7,-17.09 11.68,-30.22 3.32,-22 18.2,-29.14 38.85,-19.65 9.22,4.23 18.43,7.3 29.48,1.34 17.63,-9.51 21.33,-1.2 23.27,9.94l-11.11 43.09 -38.62 29.02 -32.83 5.14 -18.42 -9.51z"/>
   <path class="fil3" d="M163.66 849c-5.48,-2.86 -9.65,-6.29 -12.08,-10.08 -1.48,-2.29 -2.34,-4.73 -2.5,-7.26 -0.17,-2.54 0.38,-5.12 1.72,-7.7 1.84,-3.51 5.19,-6.99 10.29,-10.26 6.52,-4.2 8.11,-14.74 9.89,-26.54l0.18 -1.21c0.68,-4.48 1.82,-8.44 3.39,-11.84 2.6,-5.67 6.37,-9.78 11.1,-12.25 4.71,-2.47 10.26,-3.26 16.46,-2.32 4.02,0.6 8.34,1.95 12.91,4.05 4.32,1.98 8.6,3.69 12.96,4.19 4.17,0.47 8.54,-0.16 13.35,-2.75 10.2,-5.5 16.73,-5.61 21.2,-2.58 4.43,3 6.16,8.66 7.27,15.06l0.13 0.72 -0.2 0.76 -11.1 43.09 -0.31 1.21 -1 0.75 -38.63 29.03 -0.71 0.53 -0.88 0.14 -32.82 5.14 -1.15 0.17 -1.03 -0.52 -18.42 -9.51 -0.02 -0.02zm-6.08 -13.93c1.76,2.74 4.99,5.33 9.36,7.61l0 0 17.4 8.98 30.79 -4.81 36.92 -27.75 10.59 -41.1c-0.81,-4.43 -1.91,-8.18 -4.1,-9.66 -2.27,-1.54 -6.41,-1.04 -13.84,2.97 -6.24,3.37 -11.99,4.18 -17.5,3.55 -5.31,-0.6 -10.24,-2.54 -15.14,-4.8 -3.92,-1.8 -7.61,-2.95 -11.01,-3.46 -4.7,-0.71 -8.78,-0.18 -12.11,1.56 -3.31,1.73 -6,4.72 -7.92,8.91 -1.27,2.76 -2.22,6.08 -2.8,9.94l-0.18 1.21c-2.03,13.48 -3.84,25.52 -13.1,31.48 -4.02,2.58 -6.56,5.12 -7.83,7.56 -0.71,1.36 -1,2.68 -0.92,3.95 0.09,1.28 0.56,2.58 1.39,3.86z"/>
   <path class="fil4" d="M231.69 893.28c-18.04,1.33 -33.64,-3.96 -47.19,-13.8 -14.74,-10.7 -31.15,-16.84 -49.13,-19.65 17.28,-13.72 36.47,-17.09 56.72,-14.73 -6.11,-13.47 1.64,-31.86 -2.24,-47.79 14.22,7 34.02,2.83 44.66,14.29 8.19,-19.41 21.58,-31.04 39.3,-36.17 -3.93,11.22 -4.01,21.97 0,31.71 3.71,9.02 7.2,17.91 6.32,28.37 -6.57,10.27 -13.14,20.53 -19.72,30.8 -9.57,8.99 -19.14,17.98 -28.72,26.97z"/>
   <path class="fil5" d="M231.69 893.28c-18.04,1.33 -33.64,-3.96 -47.19,-13.8 -14.74,-10.7 -31.15,-16.84 -49.13,-19.65 17.28,-13.72 36.47,-17.09 56.72,-14.73 -6.1,-13.48 1.64,-31.86 -2.24,-47.79 14.22,7 34.02,2.83 44.66,14.29 8.19,-19.41 21.58,-31.04 39.3,-36.17 -3.92,11.22 -4.01,21.97 0,31.71 3.71,9.02 7.2,17.92 6.32,28.37l-19.72 30.8 -28.72 26.97zm-24.23 -6.16c7.05,2.14 14.61,3.09 22.71,2.64l27.44 -25.77 18.98 -29.65c0.27,-4.45 -0.33,-8.61 -1.39,-12.63 -1.17,-4.46 -2.92,-8.82 -4.73,-13.2 -2.18,-5.3 -3.26,-10.85 -3.26,-16.58 0,-3.53 0.41,-7.14 1.22,-10.8 -5.72,2.37 -10.87,5.58 -15.41,9.7 -6.17,5.6 -11.24,12.88 -15.11,22 -0.19,0.52 -0.5,1.01 -0.94,1.42 -1.46,1.36 -3.74,1.27 -5.1,-0.19 -5.37,-5.78 -14.13,-7.04 -23.05,-8.32 -4.85,-0.7 -9.75,-1.4 -14.42,-2.81 0.51,5.83 0,11.7 -0.49,17.47 -0.73,8.49 -1.43,16.74 1.45,23.15 0.28,0.59 0.4,1.26 0.32,1.96 -0.23,1.98 -2.02,3.4 -4,3.18 -9.72,-1.13 -19.17,-0.89 -28.23,1.27 -6.54,1.55 -12.89,4.12 -19.02,7.91 6.22,1.37 12.23,3.18 18.04,5.46 8.47,3.34 16.53,7.69 24.15,13.22 6.47,4.7 13.41,8.31 20.84,10.57z"/>
   <path class="fil2" d="M240.33 929.99c-14.41,-4.52 -23.57,-11.36 -15.75,-24.72 5.7,-9.74 3.7,-18.45 0,-30.59 -9.62,-31.49 8.66,-44.91 35.95,-42.2 9,0.9 17.93,2.33 25.23,-4.46 10.1,-9.41 18.31,-10.74 27.31,5.77 9,16.51 8.34,41.71 -2.87,63.33 -11.2,21.62 -40.21,34.85 -69.87,32.87z"/>
   <path class="fil3" d="M239.27 933.4c-7.83,-2.46 -14.31,-5.65 -17.95,-10.25 -4.05,-5.13 -4.6,-11.5 0.19,-19.68 2.45,-4.2 3.25,-8.18 3.04,-12.42 -0.23,-4.54 -1.6,-9.51 -3.38,-15.33 -2.37,-7.77 -3.14,-14.57 -2.56,-20.41 0.64,-6.47 2.93,-11.77 6.53,-15.92 3.57,-4.13 8.4,-7.06 14.17,-8.82 6.22,-1.9 13.56,-2.43 21.56,-1.63l1.72 0.17 0.02 0c7.6,0.79 15.07,1.56 20.72,-3.7 5.8,-5.41 11.26,-8.47 16.93,-7.77 5.62,0.71 10.82,5.06 15.94,14.45 4.86,8.93 7.09,20.16 6.56,32.01 -0.52,11.44 -3.61,23.52 -9.39,34.66 -5.94,11.45 -16.49,20.67 -29.44,26.76 -12.94,6.09 -28.31,9.07 -43.84,8.03l-0.43 -0.03 -0.39 -0.12zm-12.36 -14.66c2.54,3.22 7.68,5.68 14.08,7.72 14.18,0.87 28.17,-1.86 39.93,-7.39 11.55,-5.43 20.92,-13.56 26.12,-23.58 5.29,-10.22 8.13,-21.26 8.6,-31.7 0.48,-10.59 -1.46,-20.52 -5.69,-28.3 -3.88,-7.12 -7.29,-10.35 -10.56,-10.76 -3.21,-0.4 -6.92,1.9 -11.21,5.9 -8.01,7.46 -17.07,6.53 -26.3,5.57l0 0 -1.7 -0.17c-7.1,-0.71 -13.49,-0.27 -18.81,1.36 -4.47,1.36 -8.17,3.58 -10.85,6.66 -2.64,3.05 -4.33,7.03 -4.82,11.96 -0.49,4.93 0.19,10.8 2.28,17.64 1.93,6.31 3.41,11.76 3.68,17.04 0.29,5.59 -0.77,10.84 -4.01,16.38 -3.04,5.18 -2.92,8.92 -0.74,11.67z"/>
   <path class="fil3" d="M416.27 924.72c9.63,0.93 20.13,1.26 31,-0.85 10.66,-2.06 21.79,-6.5 32.99,-15.11 16.25,-12.49 25.99,-29.36 35.47,-45.79 4.93,-8.54 9.79,-16.97 15.35,-24.66 9.05,-12.49 19.53,-23.1 30.39,-30.92 11.04,-7.94 22.53,-13.04 33.47,-14.4l7.26 -0.91 0.02 0.21c1.65,-18.99 4.61,-37.16 15.75,-54.17 2.92,-4.46 6.11,-8.48 9.38,-12.62 7.16,-9.02 14.78,-18.63 20.2,-34.86l8.13 -24.33 0.49 2.19c0.47,-4.13 1.08,-8.2 1.82,-12.21 3.08,-16.61 8.48,-32.02 16.47,-45.97l4.65 -8.14c-3.93,-15.23 -5.38,-29.41 -5.14,-42.99 0.32,-18.56 3.78,-35.77 8.28,-52.95l3.01 -11.52c-1.35,-3.65 -2.61,-7.53 -3.76,-11.68 -2.47,-8.87 -2.57,-18.06 -2.68,-27.8 -0.08,-7.71 -0.17,-15.82 -1.63,-24.13l-2.82 -16.17 5.69 3.71c-3.2,-3.63 -6.41,-7.23 -9.62,-10.82 -7.6,-8.51 -13.12,-17.95 -16.83,-28.2 -3.67,-10.13 -5.57,-21.03 -5.97,-32.56l-0.33 -9.12c-1.31,-0.92 -2.61,-1.84 -3.89,-2.77l-0.31 -0.23 -0.27 -0.25c-8.64,-7.78 -15.56,-16.55 -20.74,-26.31 -5.16,-9.73 -8.54,-20.42 -10.13,-32.07l-1.12 -8.23c-6.56,-2.9 -12.49,-6.3 -17.86,-10.16 -13.51,-9.74 -23.27,-22.35 -30.03,-37.24l-3.59 -7.9 8.47 -1.98c1.47,-0.34 2.93,-0.64 4.38,-0.91 -4.28,-0.47 -8.76,-0.83 -13.42,-1.1 -8.03,-0.46 -15.4,-2.05 -22.11,-5.08 -6.85,-3.1 -12.94,-7.65 -18.25,-13.98 -2,-2.39 -3.76,-4.8 -5.52,-7.23 -3.59,-4.93 -7.23,-9.93 -12.23,-13.34l-14.08 -9.58 16.73 -3.31c18.66,-3.7 37.83,-3.63 57.64,0.98 7.56,1.76 15.2,4.17 22.93,7.29 -11.12,-8.26 -20.41,-17.71 -27.85,-28.14 -8.06,-11.27 -13.91,-23.65 -17.58,-36.88l-3.03 -10.9 11.15 2c16.08,2.88 31.9,7.49 46.11,15.04 14.52,7.73 27.39,18.51 37.2,33.64l0.33 0.5 8.86 2.29c14.81,3.82 29.19,9.77 41.05,20.39 11.99,10.72 21.2,25.96 25.37,48.15l0.17 0.89 0.06 -0.47 1.43 -11.06 9.42 5.93c10.09,6.35 20.44,16.76 28.69,28.82 7.7,11.26 13.68,24.11 16.05,36.63 2.83,14.91 2.03,28.99 0.2,42.82l4.64 -9.68 6.97 10.14c8.11,11.81 13.41,24.87 16.3,38.99 2.83,13.86 3.34,28.74 1.92,44.47l0 0c-0.1,1.79 -0.23,3.55 -0.4,5.28l0.55 -0.83 5.88 9.17c6.62,10.31 12.01,22.69 14.22,39.74 2.13,16.53 1.22,37.42 -4.64,65.1 -0.64,3.03 -1.52,6.06 -2.6,9.09l3.24 11.19c6.48,22.39 6.13,43.39 0.72,63.73 -3.76,14.16 -9.95,27.91 -17.96,41.56l0.07 -0.06 2.9 10.54c3.44,12.45 2.94,26.59 -1.21,41.39 -4.03,14.35 -11.52,29.39 -22.2,44.15 -9.03,12.47 -18.44,22.67 -28.04,31.47 1.31,-0.55 2.62,-1.09 3.95,-1.63l11.42 -4.64 -1.68 12.2c-2.5,18.2 -7.01,36.87 -17.45,53.84 -10.51,17.08 -26.86,32.25 -52.88,43.21l3.12 -0.11 -4.27 10.24c-8.05,19.34 -21.28,35.54 -39.57,48.08 -17.61,12.08 -39.89,20.71 -66.71,25.43 -26.98,4.75 -54.18,6.88 -81.46,7.61 -27.06,0.72 -54.07,0.05 -80.99,-0.83l-6.93 -0.22 0 -6.89 0 -24.12 0 -7.84 7.82 0.75zm33.68 13.17c-9.5,1.83 -18.62,2.06 -27.21,1.6l0 9.54c8.97,0.27 17.94,0.52 26.91,0.68l63.71 -34.87c24.61,-13.47 45.15,-27.19 58.59,-45 11.91,-15.79 18.38,-35.15 17.32,-61.04 -6.36,1.98 -12.96,5.45 -19.48,10.15 -9.6,6.9 -18.96,16.42 -27.15,27.74 -5.36,7.4 -9.94,15.33 -14.57,23.36 -10.2,17.67 -20.67,35.82 -39.1,49.98 -13.22,10.16 -26.39,15.41 -39.02,17.86zm69.08 -10.04l-65.29 21.93c14.11,0.22 28.22,0.23 42.29,-0.14 3.58,-0.1 7.16,-0.22 10.74,-0.37l24.98 -25.55 0.88 -0.9c-4.44,1.81 -8.99,3.48 -13.6,5.03zm93.19 -91.74c-3.47,20.15 -12.17,36.71 -24.48,50.32 3.72,-1.54 7.68,-3.09 11.91,-4.67l26.11 -47.16c11.15,-20.16 19.64,-41.46 23.78,-64.58 2.98,-16.64 3.71,-34.27 1.59,-53.16 -4.08,6.76 -8.42,12.23 -12.61,17.52 -3.02,3.81 -5.97,7.52 -8.61,11.55 -11.32,17.3 -12.8,37.52 -14.34,58.73 -0.74,10.26 -1.51,20.73 -3.35,31.45zm-4.04 37.75l-6.81 7.27 1.83 -0.67 0.85 -0.3 4.13 -6.3zm57.56 -86.88c-2.54,10.76 -6.03,20.65 -10.48,29.64 11.3,-9.53 23.05,-17.53 34.93,-25.62l4.09 -2.79 -0.2 -27.85c-0.16,-21.02 18.59,-47.52 38.51,-70.81l1.68 -20.87c0.35,-4.39 0.39,-8.07 0.44,-11.76 0.14,-13.1 0.3,-26.31 9.97,-50.33l-4.16 -54.72c-2.14,-28.22 -8.56,-51.68 -18.81,-70.86 -7.56,-14.16 -17.24,-26.04 -28.85,-35.86 0.12,3.39 0.16,6.72 0.2,9.98 0.09,8.73 0.19,16.97 2.17,24.12 5.37,19.31 13.46,32.41 22,46.21 3.04,4.94 6.15,9.96 9.12,15.2 9.33,16.44 13.81,33.22 14.17,49.79 0.37,17.59 -3.9,34.84 -11.95,51.12l-17.38 35.21c0.08,1.99 0.12,3.96 0.12,5.92 0,21.81 -4.75,41.35 -13.63,58.18l-30.2 57.21 17.03 -62.4c6.44,-23.62 8.09,-44.99 6.03,-64.61 -1.52,-14.37 -5.04,-27.83 -10.16,-40.57 -3.76,8.92 -6.54,18.4 -8.38,28.35 -2.92,15.77 -3.53,32.83 -2.09,50.9 2.34,29.43 1.05,55.19 -4.17,77.22zm32.33 -172c5.88,15.96 9.73,31.19 11.69,45.58l5.47 -23.73c6.27,-27.17 4.95,-49.98 -1.18,-70.04 -4.71,-15.42 -12.3,-29.35 -21.51,-42.43 -2.45,11.46 -4.13,23.03 -4.34,35.05 -0.29,17 2.34,35.15 9.87,55.57zm56.37 -61.06l-9.17 51.21c2.4,-5.82 5.34,-12.25 8.95,-19.46 1.53,-3.03 3.17,-6.05 4.9,-9.06l-4.68 -22.69zm-20.56 -90.52l0.22 0.33 -4.16 -20.37c-5.18,-25.36 -14.94,-44.49 -28.19,-58.89 -10.79,-11.75 -23.98,-20.44 -38.93,-26.89 0.84,6 2.22,11.75 4.19,17.2 3.11,8.59 7.71,16.49 14.03,23.56 9.51,10.63 18.85,21.16 27.41,31.5 8.83,10.65 17.37,21.7 25.43,33.56zm10.7 18.41c2.23,4.59 4.12,9.15 5.69,13.68 1.56,-11.63 4.59,-21.87 8.09,-31.68l-6.84 -13.81c-3.11,-6.27 -6.03,-13.03 -8.25,-21.64 0.49,4.64 0.71,9.15 0.77,13.49l0.54 39.96zm-5.74 -74.8c0.53,1.65 1.02,3.3 1.45,4.94 -1.48,-13.01 -1.55,-29.54 0.69,-51.78 0.56,-10.82 2.26,-21.25 3.96,-31.68 2.94,-17.99 5.89,-36.02 2.39,-54.49 -1.98,-10.47 -7.14,-21.44 -13.82,-31.21 -4.48,-6.55 -9.6,-12.5 -14.87,-17.34 -2.34,35.74 5.47,65.68 13.11,94.95 1.44,5.54 2.88,11.06 4.05,15.78l4.33 17.44 -15.1 -9.76c-6.53,-4.22 -10.99,-9.83 -14.21,-16.59 0.59,3.35 0.95,6.82 1.07,10.39l0.94 29.61c1.25,1.16 2.48,2.34 3.69,3.55 11.51,11.52 18.33,23.91 22.32,36.19zm-65.47 -68.8c10.91,7.11 21.83,14.21 31.93,22.49l-7.26 -20.44c-6.89,-19.41 -17.67,-32.63 -31.14,-41.54 -11.24,-7.43 -24.47,-12 -38.97,-14.73 1.58,6.29 3.85,12.21 6.79,17.75 4.31,8.13 10.11,15.5 17.39,22.11 7.05,5.11 14.15,9.74 21.26,14.36zm20.37 -45.09c4.78,5.24 8.66,10.9 11.59,17.01 -0.86,-4.02 -1.58,-8.25 -2.27,-12.69l-0.02 -0.3 -0.42 -3.64c-3.1,-27.4 -6.02,-53.18 -11.11,-80.23 -3.53,-18.76 -11.08,-31.44 -20.84,-40.18 -7.25,-6.48 -15.82,-10.92 -24.94,-14.14 0.89,5.36 2.12,10.52 3.63,15.52 2.5,8.29 5.75,16.09 9.52,23.56 3.38,6.69 8,13.66 12.59,20.59 8.85,13.37 17.63,26.61 19.37,40.22l3.9 30.47 -16.91 -25.67c-2.05,-3.11 -4.17,-6.27 -6.34,-9.48l13.51 30.65c3.18,2.63 6.1,5.4 8.74,8.31zm-45.74 -29.28c8.86,3.52 16.9,7.44 24.06,11.8l-12.87 -14.79c-13.3,-15.27 -27.27,-26.31 -42,-32.49 -11.7,-4.89 -23.99,-6.75 -36.94,-5.25 5.35,9.1 12.28,16.93 21.06,23.26 11.5,8.3 26.33,14.13 45.13,17.02l0.71 0.11 0.85 0.34zm-3.56 -42.54c3.85,2.79 7.4,5.77 10.62,8.96 -5.01,-7.28 -10.05,-14.65 -15.18,-22.44l-0.35 -0.52 -0.02 -0.03c-3.05,-5.76 -5.04,-11.39 -6.62,-17.02 -0.04,0.15 -0.07,0.29 -0.12,0.44 -0.62,2.21 -1.89,4.09 -3.57,5.51 -1.49,1.26 -3.33,2.16 -5.32,2.61l0 0.01c-3.26,0.73 -6.99,0.23 -10.21,-1.96 -19.36,-13.2 -37.95,-21.53 -55.87,-25.7 -12.84,-2.99 -25.39,-3.84 -37.68,-2.84 1.52,1.92 2.94,3.87 4.35,5.81 1.63,2.24 3.25,4.47 4.91,6.46 3.87,4.6 8.26,7.9 13.17,10.12 5.07,2.29 10.75,3.49 17.03,3.86 8.24,0.48 15.85,1.2 22.76,2.24l0.03 0c7.06,1.06 13.58,2.47 19.55,4.32 16.57,5.13 30.93,11.76 42.52,20.17zm-36.31 -58.18c9.03,5.3 17.48,10.25 22.13,16.66l-0.06 -0.28c-2.47,-10.5 -5.01,-21.32 -12.23,-32.44 -8.36,-12.86 -19.42,-22.1 -31.96,-28.77 -9.32,-4.95 -19.44,-8.51 -29.9,-11.1 3,7.37 6.85,14.38 11.56,20.96 6.92,9.69 15.75,18.5 26.49,26.2 4.52,3.23 9.33,6.06 13.97,8.77zm156.84 282.69l0.06 0.42c5.66,-14.69 11.02,-29.81 12.11,-48.9l0.03 -0.25c1.32,-14.46 0.88,-28.04 -1.68,-40.58 -1.55,-7.6 -3.89,-14.82 -7.08,-21.61 -4.4,13.11 -6.79,27.5 -7.63,42.88 -1.14,21.05 0.63,43.98 4.19,68.04zm1.79 99.32l-3.27 24.15c2.38,-3.87 4.84,-7.72 7.3,-11.57 9.7,-15.21 19.34,-30.32 22.24,-44.03 5.5,-26.04 6.41,-45.37 4.46,-60.41 -1.18,-9.17 -3.45,-16.74 -6.37,-23.29 -14.46,27.38 -17.95,58.92 -21.42,90.35 -0.9,8.14 -1.79,16.28 -2.94,24.8zm-18.4 125.61l-0.31 1.45c3.35,-3.65 6.61,-7.14 9.67,-10.42 3.68,-3.95 7.06,-7.57 10.19,-11.04 12.42,-17.92 21.83,-35.64 26.65,-53.76 3.64,-13.73 4.69,-27.77 2.43,-42.42 -10.8,14.08 -19.64,29.71 -26.97,46.53 -9.36,21.46 -16.27,44.93 -21.66,69.66zm-8.71 40.01l-11.3 51.84c10.38,-9.06 20.49,-19.61 30.03,-32.79 9.7,-13.4 16.45,-26.89 20.03,-39.63 2.17,-7.74 3.17,-15.16 2.94,-22.07 -15.25,13.18 -28.82,26.87 -40.47,41.13l-1.23 1.52zm-13.04 53.35l3.24 -40.36c-8.92,12.66 -16.34,25.76 -22.1,39.36l-9.47 22.36c9.49,-6.54 19.01,-13.39 28.33,-21.36zm-96.25 101.71l-9 9.16c6.12,-1.56 12.21,-2.87 18.28,-4.18 13.52,-2.92 26.98,-5.84 39.83,-11.21 23.05,-9.64 37.4,-22.85 46.5,-37.65 6.86,-11.14 10.84,-23.3 13.36,-35.59 -20.97,9.51 -39.28,20.57 -55.81,32.65 -19.7,14.41 -36.94,30.31 -53.16,46.82zm-46.02 46.84l-4.87 4.96 2.55 -3.88c-14,6.53 -27.9,13.79 -41.78,21.24l-26 13.95c20.38,-1.08 40.77,-3.14 61.14,-6.72 24.78,-4.36 45.19,-12.22 61.13,-23.15 12.42,-8.52 22.15,-18.94 29.14,-31.07 -19.43,2.07 -38.47,7.33 -57.26,14.51 -8.06,3.07 -16.07,6.49 -24.05,10.16z"/>
   <path class="fil6" d="M415.6 931.81c20.41,1.97 44.6,1.36 69.01,-17.41 25.77,-19.81 35.55,-48.83 52.25,-71.9 17.1,-23.62 39.3,-39.98 58.95,-42.42 6.1,63.98 -28.19,93.18 -79.04,121.02 43.84,-14.74 80.56,-40.57 88.42,-86.19 5.71,-33.21 0.8,-65.48 18.75,-92.89 9.43,-14.39 22.1,-24.39 30.37,-49.12 12.69,57.11 0.71,103.51 -22.33,145.13 25.85,-27.59 35.39,-70.3 30.81,-127.71 -2.91,-36.55 2.37,-69.39 17.86,-96.46 17.58,34.77 24.11,74.64 10.72,123.7 16.35,-30.96 17.75,-71.98 0,-120.13 -15.7,-42.59 -10.98,-75.96 -2.23,-109.4 27.41,34.3 46.18,73.43 33.04,130.39 14.65,-29.65 16,-62.49 -2.02,-94.24 -11.84,-20.87 -24.25,-35.91 -31.8,-63.04 -4.17,-15.02 -0.86,-32.51 -4.13,-51.26 36.59,23.89 58.97,63.04 63.41,121.46 4.73,-26.48 0.26,-54.65 -19.65,-83.95 -15.64,-23.01 -33.71,-43.56 -52.25,-64.31 -13.92,-15.57 -20.22,-34.67 -20.99,-56.26 40.69,14.15 71.25,41.67 82.17,95.11 -0.28,-20.39 -4.21,-44.83 -25.45,-66.09 -18.61,-18.61 -42.57,-30.96 -63.86,-46.44 -16.04,-14.46 -25.64,-32.43 -28.58,-54.03 38.74,5.08 70.82,20.5 85.74,62.52 -1,-31.25 -22.66,-52.86 -59.39,-67.43 -39.91,-6.14 -63.4,-25.12 -75.92,-52.7 35.75,-8.32 67.11,6.24 95.12,38.4 -10.16,-23.05 -33.11,-38.43 -64.75,-48.22 -11.11,-3.44 -24.72,-5.33 -40.64,-6.26 -14.31,-0.82 -26.11,-5.58 -35.28,-16.52 -6.09,-7.26 -10.57,-16 -19.2,-21.88 35.42,-7.01 72.73,0.25 112.98,27.69 4.33,2.95 10.55,-0.8 7.59,-5.81 -5.21,-8.82 -22.29,-15.7 -35.28,-25 -23,-16.49 -37.83,-37.96 -44.65,-62.52 30.74,5.52 60.42,17.55 78.59,45.55 14.22,21.9 11.56,41.31 21.88,60.73 12.36,18.75 25.6,37.06 37.96,55.82 -2.38,-18.61 -21.3,-38.76 -31.26,-58.5 -7.94,-15.74 -13.66,-32.71 -15.18,-52.25 27.66,7.14 53.47,22.01 61.18,62.97 5.37,28.56 8.33,55.52 11.61,84.4 2.89,18.75 6.33,33.49 18.75,41.53 -9.55,-38.47 -22.49,-76.41 -16.07,-125.93 17.93,11.28 37.01,36.9 41.53,60.73 5.79,30.57 -4.77,58.65 -6.26,87.97 -5.03,49.89 1.7,69.8 9.83,86.19 -7.24,-48.94 -7.21,-93.52 9.38,-128.17 15.08,21.95 19.74,48.76 16.97,79.05 -3.13,54.92 -39.01,76.53 -24.57,146.45 5.97,-44.17 6.26,-90.45 31.71,-128.59 12.25,19.09 19.96,45.82 8.6,99.54 -4.99,23.63 -26.98,48.96 -39.41,73.72 -23.09,45.99 -17.5,59.17 -19.2,80.39 10.94,-50.24 28.2,-95.65 59.39,-130.4 12.18,42.08 -1.31,78.99 -27.24,116.31 -22.1,24.52 -72.58,73.49 -72.35,105.18 16.54,-39.03 46.14,-73.94 85.3,-105.83 6.15,22.33 -1.91,51.29 -22.33,79.49 -44.38,61.29 -99.31,66.51 -138.88,126.82 32.93,-33.53 70.05,-64.59 123.25,-86.19 -4.77,34.69 -17.05,70.94 -66.33,91.55 -25.01,10.46 -51.07,11.76 -76.57,20.99 -34.75,12.58 -50.76,23.11 -68.77,41.53 45.59,-24.47 91.49,-46.97 140.67,-48.68 -14.9,35.77 -48.81,60.05 -100.92,69.22 -53.42,9.4 -107.34,8.44 -161.01,6.7 0,-8.04 0,-16.08 0,-24.12z"/>
   <path class="fil4" d="M429.21 925.37c-1.19,11.31 -4.16,26.09 -5.35,37.4 -65.87,2.83 -128.4,-8.04 -190.69,-25.46 9.94,-8.3 18.43,-25.78 36.62,-26.79 -6.03,-12.28 -4.69,-30.59 -9.38,-44.21 12.76,2.46 26.62,-0.89 40.27,2.68 0,-15.93 13.5,-31.41 16.89,-49.12 19.87,14.04 32.72,33.02 37.7,56.71 7.45,35.43 34.93,48.97 73.94,48.79z"/>
   <path class="fil5" d="M429.21 925.37c-1.19,11.31 -4.16,26.09 -5.35,37.4 -65.87,2.83 -128.39,-8.04 -190.69,-25.46 9.93,-8.3 18.43,-25.78 36.62,-26.79 -6.03,-12.28 -4.69,-30.59 -9.38,-44.21 12.76,2.46 26.63,-0.89 40.27,2.68 0,-15.93 13.49,-31.41 16.89,-49.12 19.87,14.04 32.72,33.01 37.7,56.71 7.45,35.43 34.93,48.97 73.94,48.79zm-6.24 18.14c0.8,-4.99 1.6,-9.98 2.19,-14.57 -18.43,-0.37 -34.28,-3.92 -46.65,-11.53 -13.52,-8.31 -22.83,-21.32 -26.77,-40.09 -2.39,-11.32 -6.63,-21.52 -12.65,-30.57 -5.14,-7.75 -11.61,-14.66 -19.31,-20.73 -1.88,6.32 -4.71,12.29 -7.48,18.13 -4.07,8.57 -8,16.86 -8,24.84 -0.01,0.3 -0.05,0.6 -0.13,0.91 -0.5,1.92 -2.47,3.08 -4.4,2.58 -6.96,-1.82 -14.21,-1.72 -21.32,-1.62 -4.4,0.06 -8.75,0.13 -13.05,-0.24 1.15,4.94 1.81,10.2 2.47,15.44 1.04,8.26 2.08,16.48 5.07,22.69 0.26,0.46 0.43,1 0.46,1.57 0.11,1.99 -1.42,3.7 -3.41,3.81 -11.55,0.64 -19.08,9.25 -25.79,16.92 -1.35,1.54 -2.66,3.05 -3.98,4.46 28.96,7.9 58.02,14.32 87.47,18.54 30.46,4.38 61.33,6.39 92.93,5.24 0.62,-4.95 1.48,-10.36 2.35,-15.78z"/>
   <path class="fil3" d="M464.35 96.33c32.4,-1.88 50.59,-0.87 66.04,6.72 15.46,7.59 26.74,21.01 45.68,44.1l10.12 12.34 -15.92 -0.7c-30.85,-1.35 -49.34,-2.33 -65.16,-8.96 -16.1,-6.75 -28.28,-18.77 -46.04,-42.06l-8.13 -10.66 13.41 -0.78zm59.79 19.5c-10.62,-5.21 -23.79,-6.6 -45.22,-5.91 11.72,14.22 20.83,22.2 31.66,26.74 10.92,4.57 24.31,6.07 44.23,7.14 -11.94,-14.16 -20.61,-23.02 -30.67,-27.97z"/>
   <path class="fil6" d="M464.74 103.45c62.28,-3.63 69.18,3.53 105.83,48.22 -60.05,-2.63 -71.93,-3.76 -105.83,-48.22z"/>
   <path class="fil0" d="M434 317.85c-3.9,14.37 -9.42,27.22 -19.52,35.84 -5.12,4.36 -7.88,11.06 -3.35,23.44 2.52,6.89 3.17,13.4 1,19.76 -5.72,-4.86 -2.99,-13.71 -5.7,-19.09 -2.9,-5.77 -5.66,-8.4 -9.38,-10.72 -20.31,34.49 -0.4,37.63 -5.02,46.22 -2.49,4.64 -9.8,5.25 -12.9,9.8 -1.62,-1.28 -3.24,-3.57 -5.02,-4.77 -14.27,13.98 -7.71,29.76 -1.18,45.55 -7.55,-3.62 -11.93,-9.22 -15.9,-15.07 -7.91,11.71 -13.94,27.46 -5.36,42.53 2.14,3.75 2.93,6.42 1,11.39 -8.08,0 -11.29,6.4 -12.06,12.4l3.47 0c0.03,9.35 -0.02,19.7 0,29.05l-6.41 -0.03 0 10.26 6.41 0 0 27.27c-3.32,11.25 -21.25,2.41 -9.75,-9.78 -0.06,-3.39 -2.79,-3.02 -4.19,-4.52 0,-11.12 -4.45,-12.97 -9.88,-22.61 -5.23,9.64 -10.99,13.8 -10.89,22.61 -1.8,1.42 -5.12,3.01 -5.12,4.52 2.01,2.45 1.44,4.24 3.45,6.69 0,5.2 0,10.39 0,15.58 -5.58,4.91 -11.16,9.83 -16.75,14.74 -0.73,-1.47 0.39,-6.03 -1.46,-6.03l-2.89 0 0 13.56 -7.1 0.31 0.06 11.92c-5.53,0 -9.88,6.64 -9.88,12.55 -2.9,0.06 -5.8,0.12 -8.7,0.17 0,5.53 0,11.05 0,16.58 -1.74,0.06 -3.47,0.11 -5.2,0.17 0.17,5.69 0.34,11.39 0.51,17.08 59.23,0 118.47,0 177.71,0 59.24,0 118.48,0 177.71,0 0.17,-5.69 0.34,-11.39 0.51,-17.08 -1.73,-0.06 -3.46,-0.11 -5.2,-0.17 0,-5.53 0,-11.05 0,-16.58 -2.9,-0.05 -5.8,-0.11 -8.7,-0.17 0,-5.91 -4.35,-12.55 -9.88,-12.55l0.06 -11.92 -7.1 -0.31 0 -13.56 -2.89 0c-1.85,0 -0.73,4.56 -1.46,6.03 -5.59,-4.91 -11.17,-9.83 -16.75,-14.74 0,-5.19 0,-10.38 0,-15.58 2.01,-2.45 1.44,-4.24 3.45,-6.69 0,-1.51 -3.32,-3.1 -5.12,-4.52 0.1,-8.81 -5.66,-12.97 -10.89,-22.61 -5.43,9.64 -9.88,11.49 -9.88,22.61 -1.4,1.5 -4.13,1.13 -4.19,4.52 11.5,12.19 -6.43,21.03 -9.75,9.78l0 -27.27 6.41 0 0 -10.26 -6.41 0.03c0.02,-9.35 -0.03,-19.7 0,-29.05l3.47 0c-0.77,-6 -3.98,-12.4 -12.06,-12.4 -1.93,-4.97 -1.14,-7.64 1,-11.39 8.58,-15.07 2.55,-30.82 -5.36,-42.53 -3.97,5.85 -8.35,11.45 -15.9,15.07 6.53,-15.79 13.09,-31.57 -1.18,-45.55 -1.78,1.2 -3.4,3.49 -5.02,4.77 -3.1,-4.55 -10.41,-5.16 -12.9,-9.8 -4.62,-8.59 15.29,-11.73 -5.02,-46.22 -3.72,2.32 -6.48,4.95 -9.38,10.72 -2.71,5.38 0.02,14.23 -5.7,19.09 -2.17,-6.36 -1.52,-12.87 1,-19.76 4.53,-12.38 1.77,-19.08 -3.35,-23.44 -10.1,-8.62 -15.62,-21.47 -19.52,-35.84z"/>
   <polygon class="fil2" points="405.18,551.32 462.83,551.32 462.83,545.24 405.18,545.24 "/>
   <path class="fil2" d="M434 506.48c-10.02,0 -11.92,12.56 -16.52,12.56 -3.72,0 -11.61,-10.72 -17.42,-16.08 -6.85,18.83 -8.45,35.99 4.35,48.57l0 64.47c0,2.48 -6.78,5.69 -10.54,5.69l0 26.8 40.13 0 40.14 0 0 -26.8c-3.76,0 -10.55,-3.21 -10.55,-5.69l0 -64.47c12.81,-12.58 11.21,-29.74 4.36,-48.57 -5.81,5.36 -13.71,16.08 -17.42,16.08 -4.61,0 -6.5,-12.56 -16.53,-12.56zm31.29 8.23c-4.64,5.08 -10.02,10.4 -14.76,10.4 -9.17,0 -10.3,-12.56 -16.53,-12.56 -6.22,0 -7.35,12.56 -16.52,12.56 -4.74,0 -10.12,-5.32 -14.76,-10.4 -2.94,11.43 -3.21,23.48 5.95,32.48l1.82 1.79 0 67.02c0,5.08 -5.28,8.88 -10.55,10.65l0 15.76 68.13 0 0 -15.76c-5.27,-1.77 -10.55,-5.57 -10.55,-10.65l0 -67.02 1.82 -1.79c9.16,-9 8.89,-21.05 5.95,-32.48z"/>
   <path class="fil7" d="M519.32 621.3c-0.14,-4.66 -2.13,-8.86 -5.25,-11.89 -3.11,-3.02 -7.37,-4.87 -12.05,-4.87 -4.78,0 -9.11,1.93 -12.23,5.05l-0.01 0.01c-3.12,3.13 -5.05,7.45 -5.05,12.23 0,4.76 1.91,9.07 5.01,12.19 3.1,3.13 7.4,5.09 12.14,5.12l-0.03 6.23c-6.47,-0.05 -12.31,-2.7 -16.53,-6.95 -0.33,-0.33 -0.65,-0.68 -0.96,-1.03l-16.29 0 0 -6.07 12.4 0c-1.29,-2.91 -2,-6.11 -2,-9.49 0,-6.48 2.64,-12.37 6.9,-16.63l0.01 -0.01 0 -0.01c4.27,-4.26 10.15,-6.89 16.64,-6.89 6.36,0 12.15,2.53 16.4,6.65 4.24,4.12 6.94,9.83 7.13,16.19l-6.23 0.17z"/>
   <path class="fil7" d="M348.68 621.3c0.14,-4.66 2.13,-8.86 5.25,-11.89 3.11,-3.02 7.37,-4.87 12.05,-4.87 4.78,0 9.11,1.93 12.23,5.05l0.01 0.01c3.12,3.13 5.06,7.45 5.06,12.23 0,4.76 -1.92,9.07 -5.02,12.19 -3.1,3.13 -7.4,5.09 -12.14,5.12l0.03 6.23c6.47,-0.05 12.32,-2.7 16.54,-6.95 0.33,-0.33 0.64,-0.68 0.95,-1.03l16.29 0 0 -6.07 -12.4 0c1.29,-2.91 2,-6.11 2,-9.49 0,-6.48 -2.64,-12.37 -6.9,-16.63l-0.01 -0.01 0 -0.01c-4.27,-4.26 -10.15,-6.89 -16.64,-6.89 -6.36,0 -12.15,2.53 -16.39,6.65 -4.25,4.12 -6.95,9.83 -7.14,16.19l6.23 0.17z"/>
   <path class="fil8" d="M525.14 686.95c33.76,0 61.12,27.36 61.12,61.12 0,33.76 -27.36,61.12 -61.12,61.12 -33.76,0 -61.12,-27.36 -61.12,-61.12 0,-4.7 0.53,-9.27 1.53,-13.67 2.98,2.48 5.65,5.29 7.96,8.37 -0.18,1.74 -0.27,3.51 -0.27,5.3 0,28.66 23.24,51.9 51.9,51.9 28.66,0 51.9,-23.24 51.9,-51.9 0,-28.67 -23.24,-51.9 -51.9,-51.9 -20.91,0 -38.93,12.37 -47.15,30.19 -2.29,-2.18 -4.74,-4.2 -7.33,-6.02 10.11,-19.82 30.71,-33.39 54.48,-33.39z"/>
   <path class="fil8" d="M342.86 686.95c33.76,0 61.12,27.36 61.12,61.12 0,16.02 -6.17,30.6 -16.25,41.5 -1.34,-3.61 -2.26,-7.37 -2.73,-11.2 6.14,-8.53 9.76,-18.99 9.76,-30.3 0,-28.67 -23.24,-51.9 -51.9,-51.9 -28.66,0 -51.9,23.23 -51.9,51.9 0,28.66 23.24,51.9 51.9,51.9 11.21,0 21.6,-3.56 30.08,-9.61 0.9,3.04 2.02,6.01 3.35,8.88 -9.6,6.29 -21.09,9.95 -33.43,9.95 -33.76,0 -61.12,-27.36 -61.12,-61.12 0,-33.76 27.36,-61.12 61.12,-61.12z"/>
   <path class="fil8" d="M434 711.25c33.76,0 61.12,27.37 61.12,61.12 0,4.7 -0.53,9.27 -1.53,13.67 -2.98,-2.48 -5.65,-5.28 -7.96,-8.37 0.18,-1.74 0.27,-3.51 0.27,-5.3 0,-28.66 -23.24,-51.9 -51.9,-51.9 -11.21,0 -21.6,3.56 -30.08,9.61 -0.9,-3.04 -2.02,-6.01 -3.35,-8.88 9.6,-6.29 21.09,-9.95 33.43,-9.95zm54.48 88.86c-10.11,19.81 -30.71,33.38 -54.48,33.38 -33.76,0 -61.12,-27.36 -61.12,-61.12 0,-16.02 6.17,-30.6 16.26,-41.5 1.34,3.61 2.25,7.37 2.72,11.2 -6.14,8.53 -9.76,18.99 -9.76,30.3 0,28.67 23.24,51.9 51.9,51.9 20.91,0 38.94,-12.37 47.15,-30.19 2.29,2.18 4.74,4.2 7.33,6.03z"/>
   <path class="fil3" d="M290.6 284.8l32.52 -22.31c7.09,-4.86 13.54,-6.82 19.39,-5.88 5.83,0.96 10.9,4.55 15.17,10.78 4.39,6.39 5.9,12.72 4.52,18.95 -1.37,6.25 -6.01,12.08 -13.91,17.5l-10.72 7.35 16.07 23.42 -19.62 13.46 -43.42 -63.27zm38.18 13.58l4.81 -3.3c3.8,-2.61 6.01,-5.1 6.65,-7.47 0.63,-2.36 0.24,-4.56 -1.16,-6.61 -1.37,-1.99 -3.18,-3.21 -5.47,-3.68 -2.28,-0.47 -5.26,0.55 -8.94,3.08l-5.6 3.84 9.71 14.14zm74.95 -18.16l22.54 -0.8c0.38,3.65 1.31,6.47 2.75,8.4 2.37,3.15 5.81,4.8 10.34,4.93 3.38,0.09 6.01,-0.63 7.87,-2.17 1.88,-1.54 2.84,-3.35 2.9,-5.44 0.05,-1.98 -0.76,-3.79 -2.45,-5.41 -1.69,-1.62 -5.68,-3.19 -11.98,-4.78 -10.33,-2.6 -17.64,-5.9 -21.96,-9.9 -4.36,-3.98 -6.46,-8.97 -6.3,-14.97 0.11,-3.92 1.35,-7.61 3.73,-11.04 2.38,-3.46 5.89,-6.12 10.53,-7.99 4.64,-1.88 10.96,-2.71 18.94,-2.49 9.8,0.27 17.21,2.29 22.26,6.09 5.04,3.78 7.94,9.67 8.7,17.66l-22.32 0.71c-0.49,-3.49 -1.67,-6.06 -3.52,-7.69 -1.87,-1.64 -4.47,-2.5 -7.81,-2.59 -2.75,-0.07 -4.86,0.46 -6.28,1.59 -1.43,1.12 -2.16,2.53 -2.21,4.21 -0.03,1.21 0.51,2.32 1.61,3.33 1.06,1.05 3.68,2.05 7.83,3.03 10.3,2.52 17.65,4.99 22.05,7.39 4.42,2.41 7.61,5.32 9.56,8.77 1.94,3.43 2.85,7.24 2.74,11.43 -0.13,4.92 -1.61,9.41 -4.44,13.5 -2.84,4.07 -6.71,7.13 -11.66,9.14 -4.94,2.01 -11.11,2.91 -18.54,2.71 -13.03,-0.35 -22,-3.11 -26.88,-8.27 -4.88,-5.15 -7.55,-11.6 -8,-19.35zm98.03 10.2l19.35 11.57c-1.66,3.28 -2.41,6.14 -2.25,8.55 0.27,3.94 2.26,7.19 6,9.76 2.79,1.91 5.38,2.73 7.78,2.45 2.42,-0.27 4.21,-1.27 5.4,-2.99 1.12,-1.64 1.42,-3.59 0.88,-5.87 -0.54,-2.28 -3.04,-5.77 -7.47,-10.52 -7.25,-7.8 -11.59,-14.54 -13.05,-20.25 -1.5,-5.7 -0.55,-11.03 2.84,-15.98 2.23,-3.24 5.27,-5.66 9.14,-7.25 3.87,-1.61 8.26,-1.94 13.18,-0.99 4.91,0.95 10.66,3.68 17.25,8.2 8.08,5.55 13.21,11.28 15.38,17.21 2.18,5.91 1.41,12.43 -2.29,19.55l-19.13 -11.52c1.49,-3.21 1.89,-6.01 1.22,-8.37 -0.67,-2.4 -2.39,-4.53 -5.15,-6.42 -2.27,-1.56 -4.32,-2.25 -6.13,-2.08 -1.8,0.16 -3.19,0.95 -4.14,2.33 -0.68,1 -0.83,2.23 -0.46,3.67 0.32,1.46 1.98,3.72 4.93,6.81 7.28,7.7 12.11,13.77 14.49,18.18 2.41,4.42 3.51,8.6 3.27,12.55 -0.24,3.93 -1.54,7.63 -3.91,11.09 -2.78,4.05 -6.47,7.02 -11.06,8.92 -4.6,1.87 -9.51,2.33 -14.76,1.33 -5.24,-0.99 -10.91,-3.58 -17.04,-7.79 -10.75,-7.37 -16.77,-14.57 -18.07,-21.54 -1.3,-6.98 -0.03,-13.85 3.8,-20.6z"/>
  </g>
 </g>
</svg>
